<?xml version="1.0" encoding="UTF-8" standalone="no"?><!DOCTYPE svg PUBLIC "-//W3C//DTD SVG 1.1//EN" "http://www.w3.org/Graphics/SVG/1.1/DTD/svg11.dtd"><svg width="100%" height="100%" viewBox="0 0 4 4" version="1.1" xmlns="http://www.w3.org/2000/svg" xmlns:xlink="http://www.w3.org/1999/xlink" xml:space="preserve" xmlns:serif="http://www.serif.com/" style="fill-rule:evenodd;clip-rule:evenodd;stroke-miterlimit:10;"><g><path d="M2.929,3.3l-2.51,0c-0.204,0 -0.359,-0.156 -0.359,-0.36l0,-2.52c0,-0.204 0.155,-0.36 0.359,-0.36l2.522,0c0.204,0 0.359,0.156 0.359,0.36l0,2.532c-0.012,0.192 -0.167,0.348 -0.371,0.348Z" style="fill:none;fill-rule:nonzero;stroke:#65727c;stroke-width:0.12px;"/><g id="img"><path d="M2.951,2.158l-1.102,0c-0.028,0 -0.05,-0.021 -0.05,-0.05l0,-0.856c0,-0.029 0.022,-0.05 0.05,-0.05l1.102,0c0.029,0 0.05,0.021 0.05,0.05l0,0.856c0,0.029 -0.021,0.05 -0.05,0.05Z" style="fill:#fff;fill-rule:nonzero;stroke:#65727c;stroke-width:0.07px;"/><path d="M1.906,2.03l0.348,-0.578l0.278,0.435l0.135,-0.221l0.22,0.364l-0.981,0Z" style="fill:#65727c;fill-rule:nonzero;"/><ellipse cx="2.582" cy="1.48" rx="0.1" ry="0.1" style="fill:#65727c;"/></g><g id="text"><path d="M1.635,2.065l0,0.097c0,0.026 -0.022,0.048 -0.048,0.048l-1.248,0c-0.026,0 -0.048,-0.022 -0.048,-0.048l0,-0.097c0,-0.026 0.022,-0.048 0.048,-0.048l1.248,0c0.026,0 0.048,0.022 0.048,0.048Zm-0.288,-0.289l0,0.097c0,0.026 -0.022,0.048 -0.048,0.048l-0.96,0c-0.026,0 -0.048,-0.022 -0.048,-0.048l0,-0.097c0,-0.026 0.022,-0.048 0.048,-0.048l0.96,0c0.026,0 0.048,0.022 0.048,0.048Zm0.192,-0.289l0,0.097c0,0.026 -0.022,0.048 -0.048,0.048l-1.152,0c-0.026,0 -0.048,-0.022 -0.048,-0.048l0,-0.097c0,-0.026 0.022,-0.048 0.048,-0.048l1.152,0c0.026,0 0.048,0.022 0.048,0.048Zm-0.288,-0.289l0,0.097c0,0.026 -0.022,0.048 -0.048,0.048l-0.864,0c-0.026,0 -0.048,-0.022 -0.048,-0.048l0,-0.097c0,-0.026 0.022,-0.048 0.048,-0.048l0.864,0c0.026,0 0.048,0.022 0.048,0.048Z" style="fill:#65727c;fill-rule:nonzero;"/></g></g></svg>